<?xml version="1.0" standalone="no"?>
<!DOCTYPE svg PUBLIC "-//W3C//DTD SVG 20010904//EN"
 "http://www.w3.org/TR/2001/REC-SVG-20010904/DTD/svg10.dtd">
<svg version="1.0" xmlns="http://www.w3.org/2000/svg"
 width="700.000000pt" height="700.000000pt" viewBox="0 0 700.000000 700.000000"
 preserveAspectRatio="xMidYMid meet">
<metadata>
Created by potrace 1.14, written by Peter Selinger 2001-2017
</metadata>
<g transform="translate(0.000000,700.000000) scale(0.100000,-0.100000)"
fill="#000000" stroke="none">
<path d="M3624 6958 c-39 -10 -84 -54 -85 -82 0 -11 -2 -28 -4 -37 -1 -10 5
-30 14 -45 17 -28 17 -29 -17 -64 -41 -42 -52 -69 -52 -121 0 -52 21 -91 67
-126 32 -25 45 -28 109 -28 59 0 82 5 118 25 l45 24 24 -22 c16 -15 36 -22 62
-22 l39 0 -48 49 c-30 30 -44 51 -37 55 15 10 48 83 56 127 6 34 6 35 -24 35
-27 0 -30 -3 -37 -40 -3 -23 -13 -54 -21 -69 l-14 -28 -72 74 c-125 127 -147
155 -147 186 0 56 83 81 150 46 30 -16 30 -16 30 14 0 19 -7 34 -18 40 -27 14
-101 19 -138 9z m69 -326 l87 -88 -29 -17 c-39 -23 -101 -28 -140 -11 -37 16
-71 67 -66 103 1 14 3 31 4 37 1 14 40 64 49 64 4 0 47 -40 95 -88z"/>
<path d="M3019 6255 c-34 -18 -59 -58 -686 -1070 -113 -181 -215 -346 -228
-365 -13 -19 -87 -138 -165 -265 -79 -126 -165 -266 -193 -309 -28 -44 -55
-89 -61 -100 -7 -12 -33 -54 -59 -94 -26 -40 -47 -74 -47 -76 0 -13 -72 -111
-81 -111 -6 0 -21 18 -34 40 -12 22 -131 227 -265 455 -294 502 -282 482 -278
485 2 2 176 5 388 6 345 2 389 4 420 20 89 44 97 167 15 231 l-30 23 -536 -1
c-532 -1 -537 -1 -572 -23 -19 -12 -43 -38 -52 -58 -33 -68 -32 -69 235 -523
37 -63 75 -128 84 -145 9 -16 25 -43 35 -60 10 -16 138 -237 286 -490 147
-253 305 -523 350 -600 86 -147 1198 -2055 1233 -2115 11 -19 113 -195 227
-390 115 -195 220 -376 234 -401 104 -182 158 -268 180 -284 19 -15 42 -20 83
-20 51 0 61 4 87 30 16 17 233 379 481 805 249 426 463 791 475 810 19 30 63
105 240 410 18 30 78 134 135 230 56 96 111 190 121 207 36 63 58 100 241 413
102 173 255 434 340 580 85 146 287 490 448 765 442 754 414 703 413 753 0 51
-25 89 -74 115 -31 16 -66 17 -429 15 -433 -4 -433 -4 -471 -64 -29 -47 -31
-95 -5 -140 37 -67 48 -69 343 -69 143 0 260 -2 258 -5 -1 -3 -34 -59 -72
-125 -39 -66 -80 -136 -91 -155 -10 -19 -81 -141 -157 -270 -76 -129 -163
-278 -193 -330 -72 -124 -76 -130 -83 -130 -6 0 -57 85 -178 294 -13 23 -70
122 -127 221 -57 99 -108 187 -114 195 -5 8 -35 60 -67 114 -32 55 -69 118
-82 140 -90 154 -452 778 -469 806 -80 140 -168 289 -183 311 -40 57 -133 72
-188 31 -14 -10 -108 -155 -207 -321 -100 -166 -183 -304 -186 -306 -2 -2 -13
12 -23 33 -11 20 -22 39 -25 42 -5 5 -13 18 -58 99 -14 25 -35 62 -47 81 -12
19 -33 55 -47 80 -47 85 -270 465 -300 513 -17 26 -43 54 -59 62 -35 19 -96
19 -130 0z m217 -650 c80 -137 156 -268 168 -290 13 -22 150 -257 305 -523
155 -265 290 -497 300 -515 10 -17 147 -252 304 -522 158 -269 285 -491 283
-493 -2 -2 -35 6 -73 18 -80 25 -72 23 -193 49 -138 29 -207 36 -380 36 -138
0 -223 -6 -300 -19 -14 -3 -41 -7 -60 -10 -34 -5 -150 -29 -200 -42 -61 -15
-242 -71 -450 -139 -212 -70 -346 -108 -415 -119 -16 -2 -50 -7 -75 -11 -25
-4 -58 -9 -75 -12 -39 -7 -322 -11 -360 -6 -30 5 -49 33 -226 343 -14 25 -49
85 -77 135 -29 49 -52 92 -52 96 0 6 291 478 375 609 13 19 79 125 147 235 69
110 188 300 264 422 76 123 144 231 149 240 14 26 273 441 300 483 12 19 58
92 101 162 44 71 82 127 86 125 4 -1 73 -114 154 -252z m1114 -310 c90 -154
172 -296 183 -315 10 -19 23 -39 27 -45 4 -5 18 -28 30 -50 12 -22 158 -274
325 -560 166 -286 312 -536 323 -555 10 -19 40 -70 66 -113 l46 -78 -22 -39
c-148 -257 -281 -480 -286 -480 -4 0 -29 39 -57 87 -27 48 -62 107 -76 133
-15 25 -254 435 -533 912 -278 478 -506 872 -506 877 0 6 52 97 116 203 64
106 125 207 134 223 10 17 26 44 36 62 10 18 22 29 25 25 4 -4 80 -133 169
-287z m-165 -2215 c157 -26 367 -88 500 -150 144 -66 150 -70 173 -111 l23
-40 -100 -172 c-55 -95 -105 -178 -109 -185 -8 -11 -35 -8 -148 18 -76 17
-150 34 -164 36 -14 3 -70 13 -125 24 -55 10 -122 22 -150 26 -27 3 -59 8 -70
10 -11 2 -40 7 -65 10 -25 3 -56 7 -70 10 -134 25 -632 25 -755 -1 -11 -3 -36
-7 -55 -9 -187 -27 -421 -90 -618 -167 -40 -16 -74 -29 -76 -29 -4 0 -78 124
-144 240 -11 19 -31 55 -46 80 -14 25 -26 48 -26 51 0 4 39 7 87 8 47 1 89 3
92 5 3 2 41 7 84 11 64 5 174 26 325 60 13 3 123 39 245 79 452 149 594 185
787 202 36 4 66 7 68 9 7 7 275 -5 337 -15z m-450 -785 c93 -8 314 -40 445
-64 30 -6 66 -12 80 -15 92 -17 237 -49 246 -55 7 -4 -30 -76 -97 -191 l-108
-185 -796 0 c-697 0 -798 2 -809 15 -15 17 -106 170 -106 177 0 3 -16 32 -37
64 -22 36 -33 63 -27 69 21 20 323 112 461 139 168 33 209 39 343 47 52 4 96
7 98 9 4 4 237 -3 307 -10z m391 -807 c-8 -13 -100 -171 -206 -353 -106 -181
-212 -363 -236 -402 -24 -40 -44 -75 -44 -77 0 -4 -38 -67 -113 -189 l-30 -48
-33 56 c-19 31 -34 58 -34 60 0 2 -24 44 -53 92 -30 49 -65 109 -79 133 -45
80 -280 484 -297 510 -8 14 -21 34 -26 45 -6 11 -35 59 -63 108 l-52 87 640 0
640 0 -14 -22z"/>
<path d="M1149 5873 c0 -112 0 -223 0 -248 0 -25 0 -78 0 -117 l1 -73 35 0
c19 0 35 5 36 10 7 69 2 618 -6 623 -5 3 -22 6 -37 7 l-28 1 -1 -203z"/>
<path d="M1385 6016 c-3 -6 -6 -36 -7 -66 -3 -50 -5 -55 -25 -54 -13 1 -24 -1
-24 -5 -6 -30 -4 -51 5 -52 6 -1 18 -2 26 -3 12 -1 16 -29 20 -168 5 -159 6
-168 29 -192 25 -27 54 -35 131 -40 61 -3 70 1 70 35 0 29 -1 29 -58 29 -94 0
-95 1 -97 182 l-1 154 61 1 c97 1 95 1 95 28 0 28 2 27 -90 29 l-64 1 -1 65
-1 64 -33 2 c-18 1 -34 -3 -36 -10z"/>
<path d="M284 5900 c-45 -10 -91 -40 -103 -67 -6 -13 -11 -44 -11 -69 0 -57
36 -97 101 -114 130 -34 146 -41 157 -65 37 -81 -67 -120 -205 -77 l-59 19 -1
-37 c-1 -37 -1 -37 56 -51 76 -19 171 -14 219 10 49 25 73 61 74 112 1 72 -52
120 -154 140 -73 15 -118 42 -118 71 0 32 11 45 48 61 36 15 157 6 176 -13 19
-19 27 -10 24 27 -3 31 -7 38 -33 45 -43 12 -135 16 -171 8z"/>
<path d="M703 5893 c-62 -14 -63 -15 -63 -49 0 -19 1 -34 3 -34 1 0 24 7 51
15 107 33 200 7 217 -59 5 -17 7 -32 5 -34 -2 -2 -42 -5 -87 -7 -103 -5 -121
-8 -163 -35 -47 -28 -62 -69 -57 -152 3 -62 91 -122 164 -112 62 9 77 15 113
46 l36 32 -5 -32 c-3 -20 -1 -32 6 -33 7 0 22 -2 35 -3 13 -2 25 1 29 7 11 18
5 306 -7 344 -33 101 -132 139 -277 106z m210 -266 c-5 -76 -49 -127 -116
-134 -60 -7 -104 16 -112 60 -5 26 7 87 17 87 2 0 20 6 41 14 21 7 68 12 105
12 l67 -1 -2 -38z"/>
<path d="M5498 5895 c-50 -12 -97 -53 -99 -83 0 -9 -2 -26 -4 -36 -6 -32 22
-84 56 -105 18 -11 62 -27 96 -35 87 -19 113 -38 113 -80 0 -27 -6 -36 -34
-51 -40 -22 -145 -17 -197 9 -17 9 -34 16 -36 16 -1 0 -3 -18 -3 -39 0 -39 0
-39 53 -52 176 -42 310 22 294 142 -8 62 -44 91 -148 119 -106 28 -121 38
-117 82 2 25 10 36 31 46 37 18 126 17 171 -2 40 -17 44 -14 42 28 -2 24 -8
31 -31 38 -52 14 -138 16 -187 3z"/>
<path d="M6556 5895 c-21 -7 -51 -25 -66 -40 l-27 -26 1 33 c1 31 -1 33 -34
32 l-35 0 -3 -227 c-1 -149 1 -227 8 -228 5 -1 22 -1 37 -2 l28 -1 1 156 c1
131 4 161 20 187 42 71 153 81 194 18 14 -22 19 -96 20 -283 0 -78 1 -81 23
-78 12 1 29 3 37 3 14 1 16 24 14 170 -2 150 -4 175 -23 213 -34 72 -113 101
-195 73z"/>
<path d="M5863 5892 c-7 -5 -10 -67 -9 -177 1 -151 4 -175 22 -210 50 -96 181
-108 265 -24 19 19 19 19 19 -11 0 -29 5 -32 45 -32 8 0 19 0 23 1 7 1 10 427
4 452 -1 4 -17 6 -36 5 l-35 -1 1 -151 c0 -170 -9 -200 -65 -234 -58 -36 -127
-20 -155 35 -5 11 -11 92 -11 180 -1 87 -3 160 -4 162 -7 6 -55 10 -64 5z"/>
</g>
</svg>
